<svg width="132" height="50" viewBox="0 0 132 50" fill="none" xmlns="http://www.w3.org/2000/svg">
<path d="M106.542 14.6134H110.812V35.4225H106.542V14.6134Z" fill="#1D19FF"/>
<path d="M121.731 6H126V26.9815H121.731V6Z" fill="#1D19FF"/>
<path d="M114.137 10.3059H118.406V43.9217H114.137V10.3059Z" fill="#1D19FF"/>
<path d="M6 14.6134H10.2686V29.715H10.3533L21.9609 14.6134H27.0294L17.9951 26.1755L27.9772 43.9309H22.9065L15.223 29.5943L10.2686 35.0033V43.9309H6V14.6134Z" fill="black"/>
<path d="M28.2074 29.2721C28.2074 25.8597 28.3041 23.5761 28.4975 22.4211C28.6439 21.4378 28.9647 20.489 29.4446 19.6201C30.1275 18.2718 31.2227 17.07 32.7303 16.0145C34.2122 14.9465 36.0614 14.399 38.2777 14.3721C40.5198 14.399 42.3882 14.9486 43.8828 16.0209C45.3647 17.08 46.4342 18.2864 47.0912 19.6401C47.6175 20.4886 47.9536 21.4425 48.0762 22.4352C48.2434 23.5882 48.3271 25.8671 48.3272 29.2721C48.3272 32.6234 48.2435 34.8889 48.0762 36.0685C47.9576 37.0749 47.6211 38.0428 47.0905 38.9037C46.433 40.2578 45.3636 41.4509 43.8821 42.4829C42.3873 43.5557 40.5191 44.1188 38.2773 44.1722C36.0603 44.1185 34.2112 43.5553 32.73 42.4829C31.2222 41.4507 30.1269 40.2577 29.4441 38.9037C29.238 38.4616 29.0513 38.0393 28.884 37.6371C28.7054 37.1279 28.576 36.6027 28.4973 36.0685C28.3039 34.8892 28.2072 32.6237 28.2074 29.2721ZM32.4759 29.2721C32.4759 32.1604 32.5792 34.115 32.7858 35.1359C32.918 36.0494 33.3005 36.9077 33.8902 37.6145C34.3634 38.2368 34.9732 38.7402 35.6719 39.0854C36.4589 39.5455 37.3577 39.7757 38.2674 39.7501C39.1954 39.7737 40.1125 39.5441 40.9215 39.0854C41.5976 38.7385 42.1818 38.2343 42.6257 37.6145C43.2178 36.9047 43.6122 36.0494 43.7687 35.1359C43.9622 34.115 44.059 32.1604 44.0591 29.2721C44.0593 26.3837 43.9625 24.4157 43.7687 23.3681C43.6067 22.4687 43.2124 21.6282 42.6257 20.9308C42.1763 20.3056 41.5941 19.7892 40.9215 19.4194C40.0953 19.0109 39.1877 18.797 38.2674 18.7938C37.3657 18.7948 36.4767 19.0087 35.6719 19.4184C34.9766 19.7867 34.3687 20.3023 33.8902 20.9299C33.3058 21.6243 32.9235 22.468 32.7858 23.3677C32.5792 24.4164 32.4759 26.3845 32.4759 29.2721Z" fill="black"/>
<path d="M52.2775 14.6134H63.2047C65.9766 14.6403 68.0587 15.3642 69.4512 16.7851C70.8564 18.2195 71.5589 20.1164 71.5589 22.4756C71.5857 23.6816 71.2992 24.8738 70.7278 25.934C70.393 26.502 69.961 27.0058 69.4517 27.4221C68.8317 27.9617 68.1425 28.4148 67.4026 28.7694V28.8498C68.8464 29.1977 70.0985 30.0995 70.892 31.3633C71.6264 32.6542 72.0078 34.1182 71.9973 35.606C71.9714 38.1398 71.2101 40.1438 69.7135 41.6182C68.2303 43.16 66.3788 43.9309 64.1591 43.9309H52.2775V14.6134ZM56.5463 18.5525V26.9815H62.72C64.2812 26.9815 65.4294 26.5569 66.1646 25.7078C66.5371 25.3157 66.8282 24.8527 67.0209 24.346C67.2136 23.8392 67.3041 23.2989 67.2871 22.7565C67.3144 21.644 66.912 20.5643 66.1646 19.7446C65.429 18.9771 64.2807 18.5796 62.72 18.552L56.5463 18.5525ZM56.5463 30.9189V39.7501H63.1366C64.7258 39.7236 65.8889 39.2734 66.626 38.3992C67.3584 37.5507 67.7521 36.4586 67.7309 35.3345C67.7568 34.1975 67.3631 33.0912 66.626 32.2297C65.8897 31.3827 64.7266 30.9458 63.1366 30.9189H56.5463Z" fill="black"/>
<path d="M75.4963 14.6134H79.7649V43.9309H75.4963V14.6134Z" fill="black"/>
<path d="M84.2622 14.6134H88.531V39.7501H102.274V43.9309H84.2622V14.6134Z" fill="black"/>
</svg>
