<svg width="166" height="43" viewBox="0 0 166 43" fill="none" xmlns="http://www.w3.org/2000/svg">
<path d="M101.124 12.2276C98.4535 12.2276 96.3556 12.8199 94.2567 14.0023C94.2567 7.69082 94.2567 1.97168 94.4484 0L81.6641 2.36579V3.54926L82.9995 3.74631C84.715 4.14042 85.2901 5.12569 85.668 7.49376C86.0526 12.2276 85.8598 37.4745 85.668 41.6172C89.1024 42.4066 92.7284 42.9989 96.3545 42.9989C106.467 42.9989 112.572 36.4892 112.572 26.2322C112.572 18.1461 107.612 12.2276 101.124 12.2276ZM96.7357 40.8278C95.9722 40.8278 95.0169 40.8278 94.4462 40.6319C94.2545 37.8709 94.0649 26.2322 94.2545 15.9762C95.3992 15.581 96.1617 15.3839 97.117 15.3839C101.317 15.3839 103.607 20.5119 103.607 26.8222C103.606 34.7146 100.743 40.8278 96.7357 40.8278ZM33.581 0.788218H0V2.56285L1.90834 2.7599C4.38741 3.15401 5.34268 4.73158 5.72281 8.47903C6.29685 15.5798 6.10514 28.402 5.72281 34.5141C5.34158 38.2627 4.38852 40.0385 1.90834 40.2333L0 40.6297V42.2072H21.5602V40.6297L19.2707 40.2333C16.7905 40.0373 15.8363 38.2627 15.4551 34.5141C15.2634 31.949 15.0728 27.8063 15.0728 22.6795L19.6519 22.8765C22.5144 22.8765 23.8487 25.2435 24.4217 28.5957H26.1394V14.5957H24.4217C23.8476 17.949 22.5144 20.3148 19.6519 20.3148L15.0739 20.513C15.0739 13.8063 15.2645 7.4949 15.4562 3.74745H22.1332C27.2864 3.74745 29.9571 7.09965 31.8644 13.0181L33.7727 12.4258L33.581 0.788218Z" fill="#11244A"/>
<path d="M44.457 11.8335C53.9976 11.8335 58.7673 18.5402 58.7673 27.4156C58.7673 35.8969 53.4246 43 43.884 43C34.3446 43 29.5748 36.2922 29.5748 27.4156C29.5748 18.9343 34.9164 11.8335 44.457 11.8335ZM43.884 13.8063C39.6861 13.8063 38.5414 19.7237 38.5414 27.4156C38.5414 34.9105 40.4497 41.0249 44.2664 41.0249C48.6516 41.0249 49.7986 35.1076 49.7986 27.4156C49.7986 19.9207 47.8924 13.8063 43.884 13.8063ZM115.051 27.6138C115.051 19.5266 120.012 11.8335 129.743 11.8335C137.754 11.8335 141.572 17.949 141.572 26.0351H123.827C123.635 33.3329 127.07 38.6591 133.939 38.6591C136.993 38.6591 138.519 37.872 140.428 36.4904L141.189 37.4756C139.281 40.2367 135.084 43 129.743 43C121.156 42.9989 115.051 36.6874 115.051 27.6138ZM123.827 23.8664L132.795 23.6682C132.795 19.7237 132.222 13.8063 128.979 13.8063C125.737 13.8063 124.017 19.3284 123.827 23.8664ZM164.28 13.4122C161.991 12.4247 158.939 11.8335 155.504 11.8335C148.446 11.8335 144.055 16.1721 144.055 21.3012C144.055 26.4304 147.296 28.5991 151.88 30.1778C156.649 31.9513 157.985 33.3329 157.985 35.6999C157.985 38.0668 156.268 40.2355 153.215 40.2355C149.591 40.2355 146.918 38.0668 144.82 32.1483L143.483 32.5447L143.675 41.2231C145.965 42.2084 150.161 42.9989 153.788 42.9989C161.229 42.9989 166 39.0521 166 32.9388C166 28.7961 163.9 26.4303 158.94 24.4564C153.596 22.2877 151.69 20.9071 151.69 18.342C151.69 15.778 153.41 14.0023 155.699 14.0023C159.131 14.0023 161.421 16.1721 163.141 21.4983L164.475 21.1042L164.28 13.4122ZM83.5702 12.6229C80.3276 10.6523 74.6026 11.6365 71.5505 18.7384L71.74 11.8347L58.9579 14.3986V15.5821L60.2933 15.7792C62.0122 15.9774 62.7735 16.9626 62.9652 19.5278C63.3465 24.2616 63.1558 32.547 62.9652 36.6886C62.7735 39.0532 62.0122 40.2367 60.2933 40.4349L58.9579 40.6331V42.2106H76.7015V40.6331L74.4119 40.4349C72.5047 40.2367 71.9318 39.0532 71.74 36.6886C71.3588 32.94 71.3588 25.4451 71.5505 20.7112C72.5036 19.3296 76.7015 18.1472 80.5171 20.7112L83.5702 12.6229Z" fill="#11244A"/>
</svg>
