<svg width="181" height="85" viewBox="0 0 181 85" fill="none" xmlns="http://www.w3.org/2000/svg">
<path d="M64.6719 76.5C64.4238 80.19 60.7718 84.8436 54.0225 84.8438C47.1179 84.8436 43.4551 79.9728 43.3623 76.2461L64.6719 76.5Z" fill="#11244A"/>
<path d="M13.3213 47.0186C15.526 47.0186 17.5449 47.4135 19.377 48.2031C21.2399 48.9927 22.715 50.0982 23.8018 51.5195L19.749 56.4473C19.3143 55.9417 18.8018 55.4684 18.2119 55.0264C17.6219 54.5838 16.9701 54.2358 16.2559 53.9834C15.5418 53.7306 14.7967 53.6045 14.0205 53.6045C12.8406 53.6045 11.7999 53.8883 10.8994 54.457C9.99894 54.9942 9.30054 55.7526 8.80371 56.7314C8.30688 57.7108 8.05762 58.8324 8.05762 60.0957C8.05765 61.2958 8.3069 62.386 8.80371 63.3652C9.33158 64.344 10.0459 65.1179 10.9463 65.6865C11.8468 66.2548 12.8716 66.5391 14.0205 66.5391C14.8277 66.539 15.5728 66.4446 16.2559 66.2549C16.939 66.034 17.5602 65.7182 18.1191 65.3076C18.7091 64.8967 19.2522 64.3913 19.749 63.791L23.7549 68.7666C22.6992 70.1245 21.2242 71.1983 19.3301 71.9883C17.467 72.7779 15.4639 73.1729 13.3213 73.1729C10.9303 73.1728 8.7877 72.6039 6.89355 71.4668C4.99965 70.3294 3.49381 68.7822 2.37598 66.8242C1.28917 64.8341 0.745148 62.5911 0.745117 60.0957C0.745117 57.6003 1.28914 55.3737 2.37598 53.415C3.49384 51.4253 4.99948 49.8617 6.89355 48.7246C8.7877 47.5875 10.9303 47.0186 13.3213 47.0186Z" fill="#11244A"/>
<path fill-rule="evenodd" clip-rule="evenodd" d="M39.0293 47.0186C41.6065 47.0186 43.8889 47.5875 45.876 48.7246C47.8942 49.8616 49.4778 51.4088 50.627 53.3672C51.7758 55.3254 52.3506 57.5687 52.3506 60.0957C52.3506 62.6226 51.7758 64.8656 50.627 66.8242C49.4778 68.7822 47.8942 70.3294 45.876 71.4668C43.8889 72.6039 41.6065 73.1728 39.0293 73.1729C36.4518 73.1729 34.1542 72.6038 32.1357 71.4668C30.1488 70.3294 28.5646 68.7823 27.3848 66.8242C26.236 64.8656 25.6612 62.6226 25.6611 60.0957C25.6611 57.5687 26.2359 55.3254 27.3848 53.3672C28.5646 51.4087 30.1488 49.8616 32.1357 48.7246C34.1542 47.5876 36.4517 47.0186 39.0293 47.0186ZM39.0293 53.5098C37.9111 53.5098 36.9017 53.7936 36.001 54.3623C35.1317 54.9307 34.4488 55.721 33.9521 56.7314C33.4551 57.7108 33.2219 58.8324 33.2529 60.0957C33.2219 61.3593 33.4551 62.4807 33.9521 63.46C34.4488 64.4391 35.1319 65.2126 36.001 65.7812C36.9017 66.3496 37.9111 66.6338 39.0293 66.6338C40.147 66.6338 41.1402 66.3495 42.0098 65.7812C42.879 65.2126 43.5625 64.4392 44.0596 63.46C44.5562 62.4807 44.7888 61.3593 44.7578 60.0957C44.7888 58.8324 44.5562 57.7107 44.0596 56.7314C43.5625 55.721 42.8791 54.9307 42.0098 54.3623C41.1402 53.7937 40.1469 53.5098 39.0293 53.5098Z" fill="#11244A"/>
<path fill-rule="evenodd" clip-rule="evenodd" d="M125.812 47.0186C127.55 47.0186 129.134 47.334 130.562 47.9658C132.022 48.5972 133.279 49.4822 134.335 50.6191C135.391 51.7562 136.199 53.0985 136.758 54.6465C137.317 56.1942 137.565 57.8848 137.503 59.7168L137.456 61.7539H120.466C120.605 62.3122 120.801 62.8338 121.061 63.3174C121.651 64.3281 122.489 65.1178 123.575 65.6865C124.693 66.2549 126.014 66.5391 127.535 66.5391C128.591 66.539 129.523 66.3813 130.33 66.0654C131.168 65.7495 132.069 65.212 133.031 64.4541L136.524 69.4766C135.562 70.3293 134.537 71.0243 133.45 71.5615C132.363 72.0983 131.246 72.4933 130.097 72.7461C128.979 73.0301 127.861 73.1728 126.743 73.1729C124.011 73.1729 121.635 72.62 119.617 71.5146C117.599 70.3776 116.03 68.8447 114.912 66.918C113.794 64.9598 113.235 62.7326 113.235 60.2373C113.235 58.3107 113.546 56.5417 114.167 54.9307C114.788 53.32 115.658 51.9303 116.775 50.7617C117.893 49.5616 119.213 48.6455 120.734 48.0137C122.287 47.3503 123.979 47.0186 125.812 47.0186ZM125.904 53.3672C124.693 53.3673 123.653 53.6204 122.784 54.126C121.946 54.5997 121.309 55.3101 120.874 56.2578C120.697 56.6314 120.558 57.0423 120.453 57.4893H130.609V57.4424C130.547 56.6528 130.299 55.9577 129.864 55.3574C129.46 54.7256 128.917 54.2361 128.233 53.8887C127.551 53.5416 126.774 53.3672 125.904 53.3672Z" fill="#11244A"/>
<path d="M152.638 47.0186C154.843 47.0186 156.86 47.4136 158.692 48.2031C160.556 48.9927 162.031 50.0981 163.118 51.5195L159.065 56.4473C158.631 55.9417 158.118 55.4685 157.528 55.0264C156.938 54.5839 156.286 54.2358 155.572 53.9834C154.858 53.7306 154.113 53.6045 153.337 53.6045C152.157 53.6045 151.116 53.8884 150.216 54.457C149.316 54.9942 148.616 55.7525 148.119 56.7314C147.623 57.7107 147.374 58.8325 147.374 60.0957C147.374 61.2958 147.622 62.386 148.119 63.3652C148.647 64.344 149.362 65.1178 150.262 65.6865C151.162 66.2549 152.188 66.5391 153.337 66.5391C154.144 66.539 154.889 66.4446 155.572 66.2549C156.255 66.034 156.877 65.7182 157.436 65.3076C158.026 64.8967 158.569 64.3912 159.065 63.791L163.071 68.7666C162.016 70.1245 160.54 71.1983 158.646 71.9883C156.783 72.7779 154.78 73.1728 152.638 73.1729C150.247 73.1729 148.104 72.6039 146.21 71.4668C144.316 70.3294 142.809 68.7824 141.691 66.8242C140.605 64.8341 140.062 62.5911 140.062 60.0957C140.062 57.6004 140.605 55.3736 141.691 53.415C142.809 51.4253 144.316 49.8617 146.21 48.7246C148.104 47.5875 150.247 47.0186 152.638 47.0186Z" fill="#11244A"/>
<path d="M71.5234 47.0186C73.3863 47.0186 74.9543 47.4136 76.2275 48.2031C77.5008 48.9612 78.4631 50.1145 79.1152 51.6621C79.7673 53.1782 80.0938 55.042 80.0938 57.2529V72.6992H72.5947V57.8682C72.5947 56.8578 72.4543 56.0208 72.1748 55.3574C71.8953 54.6942 71.461 54.2046 70.8711 53.8887C70.3125 53.5416 69.6135 53.3835 68.7754 53.415C68.1232 53.415 67.5171 53.5258 66.958 53.7471C66.3996 53.9364 65.9181 54.2357 65.5146 54.6465C65.111 55.0255 64.7843 55.4684 64.5361 55.9736C64.3187 56.4791 64.21 57.0321 64.21 57.6318V72.6992H56.7578V47.54H63.8379L63.9775 50.624C64.1102 50.4618 64.2486 50.3013 64.3965 50.1455C65.2968 49.1978 66.3685 48.4398 67.6104 47.8711C68.8526 47.3027 70.1571 47.0186 71.5234 47.0186Z" fill="#11244A"/>
<path d="M100.623 47.0186C102.486 47.0186 104.055 47.4135 105.328 48.2031C106.601 48.9612 107.564 50.1145 108.216 51.6621C108.868 53.1782 109.194 55.042 109.194 57.2529V72.6992H101.695V57.8682C101.695 56.8578 101.555 56.0208 101.275 55.3574C100.996 54.6941 100.561 54.2046 99.9717 53.8887C99.4126 53.5416 98.7136 53.3835 97.875 53.415C97.2231 53.4151 96.6181 53.5259 96.0596 53.7471C95.5006 53.9363 95.0188 54.2357 94.6152 54.6465C94.2116 55.0255 93.8849 55.4684 93.6367 55.9736C93.4193 56.4792 93.3105 57.0321 93.3105 57.6318V72.6992H85.8584V47.54H92.9385L93.0781 50.624C93.2108 50.4618 93.3492 50.3013 93.4971 50.1455C94.3974 49.1977 95.469 48.4398 96.7109 47.8711C97.9531 47.3028 99.2572 47.0186 100.623 47.0186Z" fill="#11244A"/>
<path d="M176.203 47.54H181V54.1729H176.203V72.6992H168.75V54.1729H164.372V47.54H168.75V41.1904H176.203V47.54Z" fill="#11244A"/>
<path fill-rule="evenodd" clip-rule="evenodd" d="M39.876 9.42871C41.9875 9.42871 43.8668 9.99768 45.5127 11.1348C47.1581 12.2403 48.4472 13.7719 49.3789 15.7305C50.3416 17.6572 50.8223 19.9004 50.8223 22.459C50.8222 24.9856 50.3414 27.2281 49.3789 29.1865C48.4472 31.1448 47.1427 32.6926 45.4658 33.8301C43.8199 34.9356 41.9258 35.4883 39.7832 35.4883C38.3859 35.4883 37.0502 35.2194 35.7773 34.6826C34.6634 34.2126 33.7043 33.5977 32.8994 32.8379L32.5635 32.5039V45.4863H25.0645V9.90234H32.1445L32.2793 12.6328C32.3838 12.5107 32.4939 12.39 32.6104 12.2715C33.4485 11.4189 34.5042 10.74 35.7773 10.2344C37.0812 9.69763 38.4477 9.42876 39.876 9.42871ZM37.9668 15.8252C36.818 15.8252 35.8236 16.0937 34.9854 16.6309C34.1472 17.1676 33.4953 17.9418 33.0293 18.9521C32.5636 19.963 32.3311 21.1322 32.3311 22.459C32.3311 23.8171 32.5637 24.9856 33.0293 25.9648C33.4952 26.944 34.1473 27.7174 34.9854 28.2861C35.8236 28.8229 36.818 29.0918 37.9668 29.0918C39.0846 29.0918 40.0631 28.8229 40.9014 28.2861C41.7395 27.7174 42.3914 26.944 42.8574 25.9648C43.323 24.9856 43.5556 23.8172 43.5557 22.459C43.5557 21.1322 43.3231 19.9793 42.8574 19C42.3914 17.9891 41.7396 17.2149 40.9014 16.6777C40.0942 16.1094 39.1159 15.8252 37.9668 15.8252Z" fill="#11244A"/>
<path d="M10.7129 9.38184C12.0792 9.38184 13.3839 9.53955 14.626 9.85547C15.8678 10.1714 17.0167 10.613 18.0723 11.1816C19.1591 11.7504 20.1215 12.4301 20.96 13.2197L17.0479 17.6729C16.4889 17.1361 15.8519 16.6629 15.1377 16.252C14.4546 15.8098 13.7404 15.4624 12.9951 15.21C12.25 14.9572 11.5672 14.8301 10.9463 14.8301C10.4805 14.8301 10.0611 14.878 9.68848 14.9727C9.34703 15.0361 9.05206 15.162 8.80371 15.3516C8.55529 15.5093 8.36837 15.715 8.24414 15.9678C8.12009 16.1885 8.05766 16.4572 8.05762 16.7725C8.05762 17.0884 8.13579 17.3889 8.29102 17.6729C8.47734 17.9572 8.72568 18.1941 9.03613 18.3838C9.3466 18.5731 9.84344 18.7941 10.5264 19.0469C11.2095 19.2678 12.1413 19.5529 13.3213 19.9004C14.7806 20.3109 16.038 20.7692 17.0938 21.2744C18.1494 21.78 18.9883 22.3793 19.6094 23.0742C20.1062 23.6114 20.4791 24.2433 20.7275 24.9697C20.976 25.6647 21.0996 26.423 21.0996 27.2441C21.0996 28.8549 20.6495 30.2924 19.749 31.5557C18.8796 32.7877 17.6687 33.7667 16.1162 34.4932C14.5637 35.1881 12.7938 35.5361 10.8066 35.5361C8.38458 35.5361 6.24108 35.1412 4.37793 34.3516C2.54605 33.5616 1.08677 32.5034 0 31.1768L4.51855 27.1963C5.48108 28.1755 6.56742 28.9023 7.77832 29.376C8.98935 29.8185 10.1387 30.04 11.2256 30.04C11.6601 30.04 12.0482 29.9921 12.3896 29.8975C12.7312 29.8028 13.0112 29.6767 13.2285 29.5186C13.4769 29.3292 13.6629 29.1236 13.7871 28.9023C13.9113 28.6496 13.9736 28.3653 13.9736 28.0498C13.9736 27.418 13.6937 26.9285 13.1348 26.5811C12.8553 26.4233 12.3893 26.2329 11.7373 26.0117C11.0853 25.7909 10.2471 25.5382 9.22266 25.2539C7.76332 24.8749 6.49011 24.4329 5.40332 23.9277C4.34757 23.3906 3.47806 22.7741 2.79492 22.0791C2.17398 21.4158 1.69214 20.6899 1.35059 19.9004C1.00903 19.0792 0.838867 18.1622 0.838867 17.1514C0.838929 15.983 1.10216 14.9251 1.62988 13.9775C2.1888 13.0302 2.91887 12.2086 3.81934 11.5137C4.75079 10.8188 5.80651 10.2977 6.98633 9.9502C8.19732 9.57118 9.43979 9.38185 10.7129 9.38184Z" fill="#11244A"/>
<path fill-rule="evenodd" clip-rule="evenodd" d="M64.6641 9.38184C65.8443 9.38184 66.9162 9.55487 67.8789 9.90234C68.8724 10.2498 69.7413 10.7398 70.4863 11.3711C71.064 11.8364 71.5764 12.3687 72.0234 12.9668V9.90234H79.4297V35.0615H71.8838V32.0615C71.4234 32.6075 70.8964 33.103 70.3008 33.5459C69.4932 34.1458 68.5924 34.6203 67.5986 34.9678C66.605 35.3152 65.5493 35.4883 64.4316 35.4883C62.3511 35.4883 60.4877 34.9356 58.8418 33.8301C57.2274 32.6926 55.9392 31.1447 54.9766 29.1865C54.0139 27.1965 53.5323 24.9542 53.5322 22.459C53.5322 19.9005 54.0139 17.6418 54.9766 15.6836C55.9393 13.7253 57.2586 12.1925 58.9355 11.0869C60.612 9.94998 62.5217 9.38189 64.6641 9.38184ZM66.4814 15.7783C65.3637 15.7783 64.3855 16.0622 63.5469 16.6309C62.7396 17.1676 62.1028 17.9417 61.6367 18.9521C61.1711 19.9315 60.9385 21.1006 60.9385 22.459C60.9385 23.817 61.1712 25.0014 61.6367 26.0117C62.1028 26.991 62.7396 27.749 63.5469 28.2861C64.3855 28.8229 65.3636 29.0918 66.4814 29.0918C67.6301 29.0917 68.6237 28.8229 69.4619 28.2861C70.3005 27.749 70.9523 26.991 71.418 26.0117C71.8836 25.0013 72.1171 23.8171 72.1172 22.459C72.1172 21.1006 71.8836 19.9315 71.418 18.9521C70.9523 17.9418 70.3005 17.1676 69.4619 16.6309C68.6237 16.0622 67.6301 15.7784 66.4814 15.7783Z" fill="#11244A"/>
<path d="M100.072 9.38184C100.631 9.38184 101.144 9.42878 101.609 9.52344C102.106 9.6181 102.556 9.72925 102.96 9.85547L100.911 18.2422C100.57 18.021 100.103 17.8469 99.5137 17.7207C98.9546 17.5629 98.3639 17.4834 97.7432 17.4834C97.0602 17.4834 96.4239 17.6096 95.834 17.8623C95.244 18.0835 94.7473 18.4154 94.3438 18.8574C93.9402 19.2995 93.6137 19.8208 93.3652 20.4209C93.1481 21.0212 93.0391 21.7009 93.0391 22.459V35.0615H85.54V9.90234H92.6201L92.7725 13.7324C92.9551 13.4418 93.1527 13.16 93.3652 12.8877C94.2349 11.8138 95.2438 10.9605 96.3926 10.3291C97.5418 9.69731 98.7684 9.38184 100.072 9.38184Z" fill="#11244A"/>
<path d="M113.724 18.8184L122.247 9.90234H132.075L120.659 20.7891L131.842 35.0615H123.039L115.752 25.4688L113.724 27.4043V35.0615H106.271V0H113.724V18.8184Z" fill="#11244A"/>
</svg>
