<svg width="163" height="59" viewBox="0 0 163 59" fill="none" xmlns="http://www.w3.org/2000/svg">
<path d="M18.6288 16.3279C21.3422 16.3279 24.0816 16.6696 26.8472 17.3532C29.665 17.9842 31.9615 18.9045 33.7358 20.114L30.5261 26.1082C28.6476 24.8462 26.6907 23.9783 24.6557 23.505C22.6207 23.0318 20.5856 22.7956 18.5506 22.7956C15.2632 22.7956 12.8103 23.3476 11.1927 24.4519C9.57529 25.5035 8.76666 26.8707 8.76655 28.5531C8.76655 29.9729 9.23594 31.0777 10.1752 31.8665C11.1666 32.6025 12.4191 33.1814 13.9323 33.6019C15.4978 34.0225 17.2203 34.3902 19.0988 34.7057C20.9772 34.9685 22.8555 35.3369 24.7339 35.8101C26.6123 36.2307 28.3083 36.8354 29.8215 37.624C31.387 38.4128 32.6394 39.5176 33.5787 40.9374C34.5702 42.3571 35.0662 44.2502 35.0662 46.6165C35.0662 49.1405 34.3359 51.323 32.8747 53.1633C31.4135 55.0037 29.352 56.4497 26.6907 57.5013C24.0296 58.5004 20.8467 59 17.142 59C13.698 59 10.4099 58.5269 7.27904 57.5804C4.20041 56.6339 1.77413 55.4765 0 54.1095L3.13076 48.1152C4.90492 49.3246 7.09675 50.3497 9.70584 51.1911C12.3149 52.0326 14.9761 52.4532 17.6895 52.4532C21.1857 52.4532 23.6906 51.9536 25.2039 50.9544C26.7692 49.9552 27.5518 48.562 27.5518 46.7741C27.5518 45.4594 27.0823 44.4342 26.1432 43.6981C25.2039 42.962 23.9515 42.4093 22.386 42.0411C20.8728 41.6729 19.1769 41.3578 17.2984 41.0949C15.4199 40.7794 13.5412 40.4111 11.6627 39.9905C9.78417 39.5172 8.06228 38.8862 6.49686 38.0975C4.93141 37.256 3.67895 36.1255 2.73967 34.7057C1.80044 33.2332 1.33039 31.2878 1.33039 28.869C1.33039 26.3449 2.03541 24.1361 3.44432 22.243C4.85321 20.3501 6.83622 18.9041 9.39297 17.9051C12.002 16.8534 15.0806 16.3279 18.6288 16.3279Z" fill="url(#paint0_linear_3539_4739)"/>
<path fill-rule="evenodd" clip-rule="evenodd" d="M108.775 16.3279C112.897 16.3279 116.577 17.2475 119.812 19.0879C123.1 20.8758 125.656 23.374 127.483 26.5817C129.361 29.7366 130.3 33.4176 130.3 37.624C130.3 41.7783 129.362 45.4594 127.483 48.6671C125.656 51.8748 123.1 54.3989 119.812 56.2392C116.577 58.0796 112.897 59 108.775 59C104.601 59 100.896 58.0795 97.6609 56.2392C94.4254 54.3989 91.8686 51.8748 89.99 48.6671C88.1115 45.407 87.1722 41.7256 87.1722 37.624C87.1722 33.4699 88.1116 29.7892 89.99 26.5817C91.8686 23.374 94.4254 20.8758 97.6609 19.0879C100.896 17.2476 104.601 16.3279 108.775 16.3279ZM108.775 22.9532C106.114 22.9532 103.74 23.5577 101.653 24.7671C99.5653 25.9765 97.8957 27.6858 96.6433 29.8943C95.391 32.0501 94.7648 34.6268 94.7647 37.624C94.7647 40.5686 95.3911 43.1717 96.6433 45.4329C97.8957 47.6414 99.5654 49.3508 101.653 50.5601C103.74 51.7694 106.114 52.374 108.775 52.374C111.437 52.374 113.811 51.7695 115.899 50.5601C118.038 49.3508 119.708 47.6414 120.908 45.4329C122.108 43.1717 122.708 40.5686 122.708 37.624C122.708 34.6268 122.108 32.0501 120.908 29.8943C119.708 27.6858 118.038 25.9765 115.899 24.7671C113.811 23.5576 111.437 22.9532 108.775 22.9532Z" fill="url(#paint1_linear_3539_4739)"/>
<path d="M51.9708 37.574L74.5922 16.7222H83.6716L66.2188 34.008L85.3937 58.5266H76.1572L60.5535 39.0228L51.9708 47.1038V58.5266H44.4571V0H51.9708V37.574Z" fill="url(#paint2_linear_3539_4739)"/>
<path d="M163 23.6633C162.687 23.6107 162.374 23.5842 162.061 23.5842H161.278C157.26 23.5842 154.077 24.7938 151.728 27.2127C149.38 29.6316 148.207 33.1285 148.207 37.7032V58.5266H140.692V16.7222H147.894V23.73C149.066 21.5676 150.761 19.8627 152.981 18.6152C155.695 17.0903 159.034 16.3279 163 16.3279V23.6633Z" fill="url(#paint3_linear_3539_4739)"/>
<defs>
<linearGradient id="paint0_linear_3539_4739" x1="-7.80279" y1="-1.41978" x2="138.124" y2="106.813" gradientUnits="userSpaceOnUse">
<stop offset="0.0572917" stop-color="#15BCD3"/>
<stop offset="0.536458" stop-color="#13CF93"/>
<stop offset="1" stop-color="#38EE81"/>
</linearGradient>
<linearGradient id="paint1_linear_3539_4739" x1="-7.80279" y1="-1.41978" x2="138.124" y2="106.813" gradientUnits="userSpaceOnUse">
<stop offset="0.0572917" stop-color="#15BCD3"/>
<stop offset="0.536458" stop-color="#13CF93"/>
<stop offset="1" stop-color="#38EE81"/>
</linearGradient>
<linearGradient id="paint2_linear_3539_4739" x1="-7.80279" y1="-1.41978" x2="138.124" y2="106.813" gradientUnits="userSpaceOnUse">
<stop offset="0.0572917" stop-color="#15BCD3"/>
<stop offset="0.536458" stop-color="#13CF93"/>
<stop offset="1" stop-color="#38EE81"/>
</linearGradient>
<linearGradient id="paint3_linear_3539_4739" x1="-7.80279" y1="-1.41978" x2="138.124" y2="106.813" gradientUnits="userSpaceOnUse">
<stop offset="0.0572917" stop-color="#15BCD3"/>
<stop offset="0.536458" stop-color="#13CF93"/>
<stop offset="1" stop-color="#38EE81"/>
</linearGradient>
</defs>
</svg>
