<svg width="195" height="54" viewBox="0 0 195 54" fill="none" xmlns="http://www.w3.org/2000/svg">
<g clip-path="url(#clip0_3452_30284)">
<path d="M29.2236 43.7864L29.2236 53.7865L10.9469 38.8105L10.9469 28.8103L29.2236 43.7864Z" fill="white"/>
<path d="M29.2281 23.7815L29.2281 33.7786L54.1941 13.3203L54.1911 23.3235L29.2281 43.7773L29.2281 33.7816L0.421875 10.1582L0.42792 0.164063L29.2281 23.7815Z" fill="white"/>
<path fill-rule="evenodd" clip-rule="evenodd" d="M80.8442 13.1785C81.8886 13.1908 82.7591 13.4429 83.4558 13.9342C84.1461 14.4213 84.6453 14.9746 84.9521 15.5939C85.1729 15.9196 85.3261 16.3464 85.41 16.8741C85.488 17.403 85.5264 18.4485 85.5264 20.009C85.5264 21.545 85.488 22.5845 85.41 23.1258C85.3261 23.6669 85.1728 24.1002 84.9505 24.4257C84.6445 25.0457 84.1464 25.5923 83.4558 26.0657C82.7598 26.5574 81.8892 26.8167 80.8442 26.8411C79.812 26.8163 78.9501 26.5571 78.2598 26.0657C77.5573 25.5925 77.0467 25.0463 76.7288 24.4257C76.6321 24.2229 76.5453 24.0293 76.4674 23.8452C76.3849 23.6119 76.3239 23.3705 76.2875 23.1258C76.1965 22.5852 76.1515 21.5457 76.1515 20.009C76.1515 18.4448 76.1972 17.3974 76.2875 16.8681C76.3778 16.3393 76.5249 15.9116 76.7288 15.5848C77.0467 14.9667 77.5572 14.4149 78.2598 13.9312C78.95 13.4415 79.8117 13.1906 80.8442 13.1785ZM80.8397 15.2069C80.3705 15.2193 79.9679 15.3155 79.6306 15.4941C79.3071 15.6629 79.0238 15.8989 78.8009 16.1864C78.5422 16.4756 78.37 16.849 78.2855 17.3049C78.1888 17.7846 78.1404 18.686 78.1404 20.009C78.1404 21.3336 78.1893 22.2305 78.2855 22.698C78.3694 23.1665 78.5407 23.5455 78.7994 23.8347C79.0196 24.1198 79.3043 24.3506 79.6291 24.5088C79.9664 24.7122 80.3704 24.813 80.8397 24.8126C81.3152 24.8126 81.7271 24.7117 82.076 24.5088C82.3904 24.3497 82.6628 24.1185 82.8694 23.8347C83.1281 23.5448 83.3067 23.1658 83.4029 22.698C83.4933 22.2305 83.5368 21.3336 83.5374 20.009C83.5374 18.6851 83.4932 17.7838 83.4029 17.3049C83.3067 16.8494 83.1296 16.476 82.8709 16.1864C82.6618 15.9001 82.3905 15.6638 82.0775 15.4941C81.7278 15.3155 81.3148 15.2193 80.8397 15.2069Z" fill="white"/>
<path d="M67.7907 20.2116H67.83L73.2391 13.2873L75.5998 13.2873L71.3907 18.5882L76.0412 26.7292L73.6804 26.7292L70.1001 20.1541L67.7907 22.636L67.7907 26.7292L65.8018 26.7292L65.8018 13.2873L67.7907 13.2873L67.7907 20.2116Z" fill="white"/>
<path fill-rule="evenodd" clip-rule="evenodd" d="M92.4574 13.2873C93.7495 13.2997 94.7196 13.632 95.3683 14.2834C96.0232 14.9412 96.3513 15.811 96.3506 16.8923C96.3629 17.4452 96.2287 17.9917 95.9622 18.4779C95.8063 18.7381 95.6054 18.9686 95.3683 19.1595C95.0797 19.407 94.7582 19.6151 94.4131 19.7778V19.8155C95.1312 20.0062 95.6733 20.3902 96.0393 20.9673C96.3812 21.5594 96.5599 22.2305 96.5547 22.9126C96.543 24.074 96.1875 24.9935 95.4907 25.6696C94.7985 26.3761 93.9356 26.7292 92.9017 26.7292L87.3657 26.7292L87.3657 13.2873L92.4574 13.2873ZM89.3546 20.7633L89.3546 24.8096L92.4257 24.8096C93.1657 24.798 93.7071 24.5916 94.0504 24.1914C94.3916 23.8026 94.5755 23.301 94.5657 22.7857C94.5656 22.2311 94.3934 21.7562 94.0504 21.3618C93.7071 20.9741 93.1657 20.7741 92.4257 20.7618L89.3546 20.7633ZM89.3546 18.9585L92.2307 18.9585C92.9583 18.9585 93.4932 18.7635 93.8357 18.3751C94.1842 18.0165 94.3587 17.5643 94.3587 17.0208C94.3585 16.4774 94.184 16.0178 93.8357 15.6407C93.4932 15.289 92.9587 15.1063 92.2307 15.0936L89.3546 15.0936L89.3546 18.9585Z" fill="white"/>
<path d="M100.176 26.7292L98.1869 26.7292L98.1869 13.2873L100.176 13.2873L100.176 26.7292Z" fill="white"/>
<path d="M104.256 24.8126L110.66 24.8126L110.66 26.7292L102.268 26.7292L102.268 13.2873L104.256 13.2873L104.256 24.8126Z" fill="white"/>
<path d="M135.277 46.6298C135.277 50.2941 137.09 51.6994 139.622 51.6994C142.496 51.6994 144.582 49.3698 144.582 46.1507L144.582 35.3977L146.943 35.3977L146.943 53.4452L144.72 53.4452L144.72 50.1924C143.796 52.2812 141.606 53.7882 138.972 53.7883C135.311 53.7883 132.881 51.6985 132.881 47.1437L132.881 35.3977L135.277 35.3977L135.277 46.6298Z" fill="white"/>
<path fill-rule="evenodd" clip-rule="evenodd" d="M90.6332 35.0531C95.7656 35.0531 99.1185 39.1976 98.7083 44.9853L84.7495 44.9853C84.9545 49.2654 87.2121 51.9017 90.736 51.902C93.7467 51.902 95.8338 50.2243 96.4156 47.3478L98.7763 47.3478C97.9553 51.3544 94.9105 53.7853 90.7707 53.7853C85.7068 53.7852 82.3542 49.9846 82.354 44.2658C82.354 38.992 85.8436 35.0534 90.6332 35.0531ZM90.6 36.9017C87.3493 36.9017 85.057 39.4025 84.7495 43.3407L96.2101 43.3407C96.0047 39.2997 93.9182 36.9017 90.6 36.9017Z" fill="white"/>
<path d="M124.472 35.3947L130.117 35.3947L130.117 37.4156L124.472 37.4156L124.472 47.8269C124.472 50.6351 125.842 51.5936 127.826 51.5936C128.578 51.5936 129.194 51.4573 129.946 51.1492L129.946 53.2714C129.023 53.648 128.236 53.7853 127.347 53.7853C124.37 53.7853 122.077 52.2447 122.077 48.3408L122.077 37.4156L117.834 37.4156L117.834 35.3947L122.077 35.3947L122.077 30.053L124.472 30.053L124.472 35.3947Z" fill="white"/>
<path fill-rule="evenodd" clip-rule="evenodd" d="M169.707 35.0531C174.839 35.0531 178.192 39.1976 177.782 44.9853L163.823 44.9853C164.028 49.2654 166.286 51.9017 169.81 51.902C172.82 51.902 174.907 50.2243 175.489 47.3478L177.85 47.3478C177.029 51.3544 173.984 53.7853 169.844 53.7853C164.78 53.7852 161.428 49.9846 161.428 44.2658C161.428 38.992 164.917 35.0534 169.707 35.0531ZM169.674 36.9017C166.423 36.9017 164.131 39.4025 163.823 43.3407L175.284 43.3407C175.078 39.2997 172.993 36.9017 169.674 36.9017Z" fill="white"/>
<path d="M187.142 35.0531C191.282 35.0531 194.018 37.2796 194.292 40.8755L192.034 40.8755C191.795 38.3755 189.982 36.9017 187.142 36.9017C184.61 36.9017 182.865 38.1017 182.865 39.9852C182.865 41.7656 183.961 42.6215 186.629 43.1352L189.332 43.6491C192.924 44.334 194.532 45.8406 194.532 48.4089C194.532 51.7308 191.863 53.7853 187.415 53.7853C182.934 53.7852 180.197 51.5249 179.854 47.7922L182.147 47.7922C182.318 50.3606 184.336 51.9714 187.415 51.9715C190.358 51.9715 192.137 50.84 192.137 48.7852C192.137 47.0049 191.11 46.1831 188.374 45.6352L185.774 45.1213C182.353 44.4707 180.539 42.793 180.539 40.1908C180.539 37.1771 183.207 35.0531 187.142 35.0531Z" fill="white"/>
<path d="M160.548 37.6257C156.75 37.4888 153.842 39.8515 153.842 43.7897L153.842 53.4467L151.447 53.4467L151.447 35.3993L153.671 35.3993L153.671 39.5091C154.903 36.838 157.572 35.1257 160.548 35.1257L160.548 37.6257Z" fill="white"/>
<path d="M74.0129 50.6368L79.6578 35.3977L82.1213 35.3977L75.1767 53.4452L72.6784 53.4452L65.8018 35.3977L68.368 35.3977L74.0129 50.6368Z" fill="white"/>
<path d="M110.154 35.0531C113.917 35.0531 116.347 37.4503 116.347 41.731L116.347 53.4437L113.952 53.4437L113.952 42.5532C113.952 39.0943 112.378 37.142 109.436 37.142C106.63 37.1422 104.371 39.5737 104.371 42.9296L104.371 53.4437L101.977 53.4437L101.977 35.3962L104.201 35.3962L104.201 38.7866C105.364 36.5607 107.554 35.0534 110.154 35.0531Z" fill="white"/>
</g>
<defs>
<clipPath id="clip0_3452_30284">
<rect width="195" height="54" fill="white"/>
</clipPath>
</defs>
</svg>
