<svg width="142" height="69" viewBox="0 0 142 69" fill="none" xmlns="http://www.w3.org/2000/svg">
<path d="M29.6361 22.3586C34.4658 22.3586 38.6546 25.2071 40.5946 29.3013C41.1682 30.5225 41.5551 31.8655 41.6871 33.2733V35.6288C41.5551 37.0827 41.1475 38.4574 40.5407 39.7119C38.5782 43.7503 34.4227 46.5343 29.6379 46.5343L25.2992 46.7599L21.1705 46.5343C17.9075 46.2261 13.5014 44.6542 10.7563 43.1357C11.405 41.9682 12.5676 40.6374 13.5865 39.501C14.1621 38.859 14.7109 38.1952 15.3179 37.589C17.1911 38.6458 19.2978 39.3497 21.5242 39.6027L23.378 39.8261L25.5227 39.8897L29.5059 39.8261C32.3498 39.8261 34.7988 37.2826 34.7988 34.4539C34.7988 31.6161 32.4854 29.3053 29.6396 29.3053H23.378C18.6704 29.3053 14.4034 31.3079 11.4049 34.5092C10.0275 35.9834 8.90221 37.7 8.14148 39.6027C7.99884 39.9445 7.87826 40.2956 7.75644 40.6373C7.2381 42.2337 6.962 43.9276 6.96199 45.6884C6.96199 45.9749 6.97313 46.261 6.98417 46.5364C7.43609 55.1635 14.4321 62.0732 23.378 62.0732H41.6871V69H23.3736C10.7497 69 0.396089 58.9105 0.0111339 46.3994C0.0111339 46.1576 0 45.9156 0 45.6848C2.53438e-06 43.5398 0.298208 41.4704 0.838721 39.501C1.33489 37.7407 2.01767 36.0688 2.8785 34.5057C3.93565 32.5915 5.24792 30.8423 6.76974 29.3013C7.08968 28.9834 7.41922 28.6641 7.75066 28.3664C11.8971 24.6363 17.3763 22.3586 23.3736 22.3586H29.6361Z" fill="#370639"/>
<path d="M58.3778 24.1277C60.1374 24.1277 61.6781 24.4466 62.9999 25.0844C64.3218 25.7222 65.3679 26.6178 66.1383 27.771C66.9086 28.9243 67.3332 30.2786 67.412 31.8338H62.1333C61.9845 30.829 61.5905 30.0208 60.9515 29.4092C60.3212 28.7889 59.494 28.4787 58.4698 28.4787C57.6031 28.4787 56.8459 28.7147 56.1981 29.1865C55.5591 29.6495 55.06 30.3266 54.7011 31.2178C54.3422 32.1089 54.1627 33.188 54.1627 34.4548C54.1627 35.7391 54.3379 36.8312 54.688 37.7311C55.0469 38.631 55.5503 39.3169 56.1981 39.7887C56.8459 40.2605 57.6031 40.4964 58.4698 40.4964C59.1088 40.4964 59.6822 40.3653 60.1899 40.1032C60.7064 39.8411 61.131 39.4611 61.4636 38.9631C61.805 38.4563 62.0283 37.8491 62.1333 37.1414H67.412C67.3245 38.6791 66.9043 40.0333 66.1514 41.204C65.4073 42.3661 64.3787 43.2747 63.0656 43.93C61.7525 44.5853 60.1987 44.9129 58.4041 44.9129C56.3382 44.9129 54.5611 44.476 53.0729 43.6023C51.5935 42.7199 50.4554 41.4967 49.6588 39.9328C48.8709 38.3689 48.477 36.5691 48.477 34.5335C48.477 32.4716 48.8753 30.663 49.6719 29.1078C50.4773 27.5439 51.6197 26.3251 53.0991 25.4514C54.5786 24.569 56.3381 24.1277 58.3778 24.1277Z" fill="#370639"/>
<path fill-rule="evenodd" clip-rule="evenodd" d="M132.217 24.1277C134.196 24.1277 135.92 24.5646 137.391 25.4383C138.853 26.312 139.987 27.5308 140.792 29.0947C141.597 30.6586 142 32.4759 142 34.5465C142 36.6696 141.597 38.5087 140.792 40.0639C139.987 41.6103 138.84 42.8073 137.352 43.6547C135.855 44.4935 134.069 44.9128 131.994 44.9129C130.331 44.9129 128.865 44.6595 127.595 44.1528C126.317 43.6373 125.275 42.9209 124.47 42.0035C123.847 41.2953 123.386 40.495 123.086 39.6029C122.786 40.495 122.325 41.2953 121.703 42.0035C120.897 42.9209 119.855 43.6373 118.577 44.1528C117.308 44.6595 115.842 44.9128 114.179 44.9129C112.104 44.9129 110.318 44.4935 108.821 43.6547C107.333 42.8073 106.186 41.6103 105.381 40.0639C104.575 38.5087 104.173 36.6696 104.173 34.5465C104.173 32.4759 104.575 30.6586 105.381 29.0947C106.186 27.5308 107.32 26.312 108.782 25.4383C110.252 24.5646 111.977 24.1277 113.955 24.1277C115.286 24.1277 116.525 24.3418 117.671 24.7699C118.827 25.1893 119.834 25.8227 120.691 26.6702C121.558 27.5177 122.232 28.5836 122.714 29.8679C122.86 30.2561 122.984 30.6647 123.086 31.0934C123.188 30.6647 123.312 30.2561 123.459 29.8679C123.94 28.5836 124.614 27.5177 125.481 26.6702C126.339 25.8227 127.346 25.1893 128.501 24.7699C129.648 24.3418 130.887 24.1277 132.217 24.1277ZM109.701 35.8964C109.701 36.8924 109.885 37.753 110.252 38.4782C110.629 39.2033 111.158 39.7625 111.841 40.1557C112.524 40.5488 113.334 40.7454 114.27 40.7454C114.892 40.7454 115.461 40.658 115.977 40.4832C116.494 40.3085 116.936 40.0464 117.304 39.6969C117.671 39.3474 117.952 38.9194 118.144 38.4126L123.086 38.738L128.029 38.4126C128.221 38.9194 128.501 39.3474 128.869 39.6969C129.237 40.0464 129.679 40.3085 130.195 40.4832C130.712 40.658 131.281 40.7454 131.902 40.7454C132.839 40.7454 133.649 40.5488 134.331 40.1557C135.014 39.7625 135.544 39.2033 135.92 38.4782C136.288 37.753 136.472 36.8924 136.472 35.8964V35.8833H109.701V35.8964ZM114.047 28.2953C113.198 28.2953 112.445 28.4919 111.789 28.885C111.141 29.2695 110.633 29.7893 110.265 30.4446C109.926 31.041 109.74 31.7006 109.706 32.4235H118.17C118.17 31.6197 117.995 30.9076 117.645 30.2873C117.295 29.6669 116.809 29.1821 116.188 28.8326C115.575 28.4744 114.861 28.2953 114.047 28.2953ZM132.125 28.2953C131.311 28.2953 130.598 28.4744 129.985 28.8326C129.364 29.1821 128.878 29.6669 128.528 30.2873C128.177 30.9076 128.002 31.6197 128.002 32.4235H136.466C136.433 31.7006 136.246 31.041 135.907 30.4446C135.539 29.7893 135.032 29.2695 134.384 28.885C133.727 28.4919 132.975 28.2953 132.125 28.2953Z" fill="#370639"/>
<path fill-rule="evenodd" clip-rule="evenodd" d="M79.1721 24.1277C80.2926 24.1277 81.3649 24.2588 82.3891 24.5209C83.4221 24.783 84.337 25.1893 85.1336 25.7397C85.939 26.2901 86.5736 26.9979 87.0376 27.8628C87.5015 28.719 87.7336 29.7456 87.7336 30.9425V44.5197H82.4286V41.7283H82.271C81.9471 42.3574 81.5138 42.9122 80.971 43.3927C80.4283 43.8645 79.7761 44.2358 79.0145 44.5066C78.2529 44.7687 77.3731 44.8998 76.3752 44.8998C75.0884 44.8998 73.9415 44.677 72.9348 44.2314C71.9281 43.7771 71.1315 43.1087 70.545 42.2263C69.9672 41.3351 69.6783 40.2255 69.6783 38.8975C69.6783 37.7792 69.8841 36.84 70.2955 36.0799C70.7069 35.3198 71.2672 34.7081 71.9763 34.2451C72.6853 33.782 73.4908 33.4326 74.3924 33.1967C75.3028 32.9608 76.257 32.7948 77.255 32.6987C78.428 32.5763 79.3734 32.4628 80.0913 32.3579C80.8091 32.2444 81.33 32.0783 81.6539 31.8599C81.9778 31.6415 82.1397 31.3182 82.1397 30.8901V30.8115C82.1397 29.9815 81.8771 29.3393 81.3519 28.885C80.8354 28.4307 80.1 28.2035 79.1458 28.2035C78.1391 28.2035 77.3381 28.4263 76.7428 28.8719C76.1475 29.3087 75.7536 29.8592 75.561 30.5231L70.3874 30.1038C70.65 28.8806 71.1665 27.8234 71.9368 26.9323C72.7072 26.0324 73.7008 25.3422 74.9176 24.8617C76.1432 24.3724 77.5613 24.1277 79.1721 24.1277ZM82.1791 35.1887C82.004 35.3023 81.7633 35.4071 81.4569 35.5032C81.1593 35.5906 80.8222 35.6736 80.4458 35.7522C80.0694 35.8221 79.693 35.8877 79.3166 35.9488C78.9401 36.0012 78.5987 36.0493 78.2923 36.093C77.6358 36.1891 77.0623 36.342 76.5721 36.5517C76.0819 36.7614 75.7011 37.0453 75.4297 37.4035C75.1583 37.753 75.0227 38.1899 75.0227 38.7141C75.0227 39.4742 75.2984 40.0552 75.8499 40.4571C76.4102 40.8502 77.1193 41.0468 77.9772 41.0468C78.8 41.0468 79.5267 40.8852 80.1569 40.5619C80.7872 40.2299 81.2818 39.7843 81.6407 39.2251C81.9996 38.666 82.1791 38.0326 82.1791 37.3249V35.1887Z" fill="#370639"/>
<path d="M102.182 24.1015C102.462 24.1015 102.765 24.119 103.088 24.1539C103.412 24.1889 103.697 24.2369 103.942 24.2981V29.2519C103.679 29.1733 103.316 29.1034 102.852 29.0423C102.388 28.9811 101.963 28.9505 101.578 28.9505C100.755 28.9505 100.02 29.1296 99.3722 29.4878C98.7332 29.8373 98.2255 30.3266 97.8491 30.9556C97.4814 31.5847 97.2976 32.3098 97.2976 33.1311V44.5197H91.7037V24.3898H97.1269V27.9021H97.3369C97.7046 26.6527 98.3218 25.7091 99.1884 25.0713C100.055 24.4248 101.053 24.1015 102.182 24.1015Z" fill="#370639"/>
<path d="M41.6905 6.93377H23.3779C14.6682 6.93378 7.4913 13.7899 6.984 22.3601C6.98399 22.4601 6.97295 22.5577 6.97295 22.6577C4.57029 24.3627 2.43039 26.4542 0.666191 28.808C0.236901 27.0473 0.00561165 25.2091 0.00561076 23.317L0.0277908 22.5025C0.457082 10.0357 10.788 0 23.3797 0H41.6905V6.93377Z" fill="#370639"/>
</svg>
