<svg width="117" height="209" viewBox="0 0 117 209" fill="none" xmlns="http://www.w3.org/2000/svg">
<path fill-rule="evenodd" clip-rule="evenodd" d="M98.9548 0C108.864 0 116.898 8.05344 116.898 17.9879V232.895L116.896 233.128C116.773 242.878 108.912 250.758 99.1866 250.882L98.9548 250.883H17.7397L17.5079 250.882C7.78235 250.758 -0.0784623 242.878 -0.201588 233.128L-0.203125 232.895V17.9879C-0.203123 8.05344 7.83017 1.82982e-07 17.7397 0H98.9548ZM17.7397 3.15577C9.56869 3.15577 2.94475 9.79632 2.94475 17.9879V232.895C2.94475 241.087 9.56869 247.728 17.7397 247.728H98.9548C107.126 247.728 113.75 241.087 113.75 232.895V17.9879C113.75 9.79632 107.126 3.15577 98.9548 3.15577H17.7397Z" fill="#ECECEC"/>
</svg>
